<svg width="1000" height="1000" viewBox="0 0 1000 1000" fill="none" xmlns="http://www.w3.org/2000/svg">
<path d="M523.812 488.387C523.812 430.883 587.216 395.962 635.816 426.696L761.647 506.271C799.07 529.936 810.152 579.497 786.374 616.848L693.989 761.963C679.303 785.031 653.851 799 626.505 799H408.531C385.821 799 364.181 789.347 349.008 772.449L221.476 630.424C208.292 615.742 201 596.706 201 576.975V426.523C201 409.684 206.314 393.274 216.185 379.631L321.469 234.107C336.513 213.314 360.619 201 386.284 201H736.513V261H386.284C379.868 261 373.841 264.078 370.08 269.276L264.796 414.801C262.328 418.211 261 422.314 261 426.523V576.975C261 581.908 262.823 586.667 266.119 590.337L393.65 732.362C397.444 736.587 402.854 739 408.531 739H626.505C633.341 739 639.705 735.507 643.376 729.74L735.76 584.626C741.704 575.288 738.934 562.898 729.579 556.981L627.105 492.178L523.812 629.232V488.387Z" fill="black"/>
</svg>
