<svg width="1000" height="1000" viewBox="0 0 1000 1000" fill="none" xmlns="http://www.w3.org/2000/svg">
<path d="M740 616.901V280C740 268.954 731.046 260 720 260H466.924V200H720C764.183 200 800 235.817 800 280V616.901C800 643.236 785.985 665.9 765.896 681.356L646.916 772.895C624.835 789.883 595.597 798.416 566.566 798.426L282.137 798.914C237.901 798.99 202 763.15 202 718.914V562.5H262V718.914C262 729.973 270.975 738.933 282.034 738.914L566.465 738.427H566.516C584.652 738.427 600.429 732.959 610.33 725.341L729.309 633.802C738.022 627.098 740 620.717 740 616.901Z" fill="black"/>
</svg>
