<svg width="1000" height="1000" viewBox="0 0 1000 1000" fill="none" xmlns="http://www.w3.org/2000/svg">
<path d="M200 280.051C200 235.837 235.866 200.007 280.08 200.051L720.08 200.492C764.231 200.537 800 236.341 800 280.492V475.901C800 520.084 764.183 555.901 720 555.901H260V800H200V280.051ZM260 495.901H391.335L260 373.66V495.901ZM260 291.692L479.401 495.901H720C731.046 495.901 740 486.947 740 475.901V280.492C740 269.455 731.058 260.504 720.021 260.492L280.021 260.051C268.967 260.04 260 268.997 260 280.051V291.692Z" fill="black"/>
</svg>
