<svg width="1000" height="1000" viewBox="0 0 1000 1000" fill="none" xmlns="http://www.w3.org/2000/svg">
<path d="M560.5 499.999C560.5 328.217 535.203 237.027 504.397 188.031C488.628 162.95 471.141 148.516 454.776 140.744C438.286 132.913 425.262 133 421.497 133L421.503 193C421.739 193 424.339 192.712 429.036 194.942C433.859 197.233 443.122 203.299 453.603 219.968C475.297 254.472 500.5 331.782 500.5 499.999C500.5 668.081 474.711 745.527 452.729 780.18C442.078 796.971 432.655 803.212 427.767 805.581C425.205 806.823 423.377 807.252 422.521 807.404C421.795 807.533 421.674 807.499 421.5 807.499V867.499C421.414 867.499 422.1 867.503 422.771 867.492C423.511 867.481 424.415 867.452 425.458 867.389C427.547 867.261 430.088 866.998 433.005 866.481C438.862 865.441 446.022 863.41 453.937 859.573C470.001 851.786 487.485 837.401 503.396 812.318C534.539 763.221 560.5 671.917 560.5 499.999Z" fill="black"/>
</svg>
