<svg width="1000" height="1000" viewBox="0 0 1000 1000" fill="none" xmlns="http://www.w3.org/2000/svg">
<path d="M596 719V668.784C596 657.739 587.046 648.784 576 648.784H390.5C346.317 648.784 310.5 612.967 310.5 568.784V518C310.5 473.817 346.317 438 390.5 438H801V498H390.5C379.454 498 370.5 506.954 370.5 518V568.784C370.5 579.83 379.454 588.784 390.5 588.784H576C620.183 588.784 656 624.602 656 668.784V719C656 763.183 620.183 799 576 799H200V739H576C587.046 739 596 730.046 596 719Z" fill="black"/>
</svg>
