<svg width="1000" height="1000" viewBox="0 0 1000 1000" fill="none" xmlns="http://www.w3.org/2000/svg">
<path d="M739 558.79C739 545.534 728.291 534.89 715.208 534.89H283.792C270.708 534.89 260 545.534 260 558.79V739H739V558.79ZM632.491 283.9C632.491 270.644 621.782 260 608.698 260H391.377C378.293 260 367.585 270.644 367.585 283.9V436.976C367.585 450.232 378.293 460.876 391.377 460.876H608.698C621.782 460.876 632.491 450.232 632.491 436.976V283.9ZM692.491 436.976C692.491 450.613 689.237 463.497 683.464 474.89H715.208C761.542 474.89 799 512.51 799 558.79V799H200V558.79C200 512.51 237.458 474.89 283.792 474.89H316.612C310.839 463.497 307.585 450.613 307.585 436.976V283.9C307.585 237.62 345.043 200 391.377 200H608.698C655.032 200 692.491 237.62 692.491 283.9V436.976Z" fill="black"/>
</svg>
