<svg width="1000" height="1000" viewBox="0 0 1000 1000" fill="none" xmlns="http://www.w3.org/2000/svg">
<path d="M570.336 202C604.597 202 635.055 223.818 646.08 256.257L794.942 694.257C812.577 746.144 774 800 719.197 800H200V740H719.197C732.898 740 742.542 726.536 738.134 713.564L676.289 531.597H330.014C285.831 531.597 250.014 495.779 250.014 451.597V282C250.014 237.817 285.831 202 330.014 202H570.336ZM465.98 471.597H613.514L577.206 364.947L465.98 471.597ZM310.014 451.597C310.014 462.642 318.968 471.597 330.014 471.597H379.289L587.583 271.874C584.044 265.844 577.525 262 570.336 262H330.014C318.968 262 310.014 270.954 310.014 282V451.597Z" fill="black"/>
</svg>
