<svg width="1000" height="1000" viewBox="0 0 1000 1000" fill="none" xmlns="http://www.w3.org/2000/svg">
<path d="M306 491.001V799H366V491.001C366 479.955 374.954 471.001 386 471.001L614 471C625.046 471 634 479.954 634 491V694.68C634 705.725 625.046 714.68 614 714.68H602.788V666.225C602.788 622.042 566.971 586.225 522.788 586.225H495.091C450.908 586.225 415.091 622.042 415.091 666.225V694.68C415.091 738.862 450.908 774.68 495.091 774.68H614C658.183 774.68 694 738.862 694 694.68V491C694 446.817 658.183 411 614 411L386 411.001C341.817 411.001 306 446.818 306 491.001ZM475.091 666.225C475.091 655.179 484.045 646.225 495.091 646.225H522.788C533.834 646.225 542.788 655.179 542.788 666.225V714.68H495.091C484.045 714.68 475.091 705.725 475.091 694.68V666.225Z" fill="black"/>
</svg>
