<svg width="1000" height="1000" viewBox="0 0 1000 1000" fill="none" xmlns="http://www.w3.org/2000/svg">
<path d="M260.001 280C260.001 268.954 268.955 260 280.001 260H592.288C607.484 260 617.129 276.278 609.83 289.606L515.012 462.757H270.873L692.817 670.359L732.51 704.587C746.55 716.693 737.988 739.733 719.449 739.733H260.001V280ZM200.001 800H260.001V799.733H719.449C793.605 799.733 827.852 707.573 771.692 659.147L570.755 485.883L662.456 318.425C691.651 265.112 653.072 200 592.288 200H280.001C235.818 200 200.001 235.817 200.001 280V800Z" fill="black"/>
</svg>
