<svg width="1000" height="1000" viewBox="0 0 1000 1000" fill="none" xmlns="http://www.w3.org/2000/svg">
<path d="M260 740.002H306.574L260 693.427V740.002ZM740 280.317C740 269.222 730.969 260.247 719.874 260.317L691.809 260.494C690.013 260.505 688.226 260.759 686.498 261.247L274.563 377.593C265.949 380.027 260 387.889 260 396.84V608.576L391.426 740.002H739.489V635.45H799.489V800.002H200V396.84C200 361.032 223.796 329.585 258.256 319.852L670.189 203.506C677.103 201.553 684.248 200.54 691.432 200.495L719.497 200.318C763.875 200.039 800 235.938 800 280.317V310.285H740V280.317Z" fill="black"/>
</svg>
