<svg width="1000" height="1000" viewBox="0 0 1000 1000" fill="none" xmlns="http://www.w3.org/2000/svg">
<path d="M525.002 760.001C551.098 774.799 551.098 774.8 551.098 774.801C551.097 774.801 551.096 774.802 551.096 774.803C551.094 774.805 551.093 774.808 551.091 774.813C551.086 774.821 551.079 774.833 551.069 774.85C551.051 774.882 551.023 774.931 550.987 774.994C550.915 775.121 550.809 775.309 550.669 775.556C550.389 776.049 549.976 776.776 549.445 777.71C548.384 779.578 546.848 782.281 544.947 785.619C541.146 792.296 535.881 801.525 530.03 811.732C518.371 832.073 504.239 856.555 494.738 872.416L443.266 841.586C452.433 826.281 466.301 802.262 477.975 781.895C483.79 771.748 489.025 762.571 492.807 755.93C494.697 752.61 496.224 749.925 497.277 748.071C497.804 747.145 498.211 746.426 498.487 745.939C498.625 745.696 498.731 745.512 498.801 745.388C498.836 745.326 498.862 745.279 498.88 745.248C498.888 745.233 498.895 745.221 498.899 745.214C498.902 745.21 498.903 745.207 498.904 745.205L498.905 745.203C498.905 745.203 498.906 745.203 525.002 760.001Z" fill="black"/>
</svg>
