<svg width="1000" height="1000" viewBox="0 0 1000 1000" fill="none" xmlns="http://www.w3.org/2000/svg">
<path d="M547.845 199C447.311 199.012 376.763 199.096 281.175 199.119C237.084 199.13 201.255 234.819 201.16 278.953L200.171 739.999H199.998V799.999H579.093C607.03 799.999 632.944 785.425 647.455 761.552L787.331 531.426C804.893 502.533 802.393 465.719 781.089 439.465L609.971 228.59C594.781 209.87 571.954 198.997 547.845 199ZM734.499 477.271C739.825 483.835 740.449 493.039 736.058 500.262L596.183 730.387C592.556 736.355 586.077 739.999 579.093 739.999H237.106L577.408 283.682L734.499 477.271ZM260.454 608.327L261.16 279.082C261.184 268.073 270.136 259.122 281.189 259.119C368.162 259.098 434.167 259.028 520.962 259.007L260.454 608.327Z" fill="black"/>
</svg>
