<svg width="1000" height="1000" viewBox="0 0 1000 1000" fill="none" xmlns="http://www.w3.org/2000/svg">
<path d="M739 870V799.771H200.243L201.178 517.735C201.324 473.656 237.098 438 281.178 438H719C758.496 438 791.305 466.622 797.821 504.256L799 503.126V870C799 914.183 763.183 950 719 950H200V890H719C730.046 890 739 881.046 739 870ZM639.083 739.771H739V643.874L639.083 739.771ZM281.178 498C270.158 498 261.214 506.914 261.178 517.934L260.442 739.771H552.434L739 560.71V518C739 506.954 730.046 498 719 498H281.178Z" fill="black"/>
</svg>
