<svg width="1000" height="1000" viewBox="0 0 1000 1000" fill="none" xmlns="http://www.w3.org/2000/svg">
<path d="M200 517.527C200 473.314 235.864 437.485 280.077 437.527L720.077 437.953C764.23 437.996 800 473.801 800 517.953V720.002C800 764.185 764.183 800.002 720 800.002H260V950.001H200V517.527ZM260 740.002H375.885L260 627.804V740.002ZM260 544.291L462.143 740.002H720C731.046 740.002 740 731.048 740 720.002V517.953C740 506.915 731.058 497.964 720.02 497.953L280.02 497.527C268.966 497.517 260 506.474 260 517.527V544.291Z" fill="black"/>
</svg>
