<svg width="1000" height="1000" viewBox="0 0 1000 1000" fill="none" xmlns="http://www.w3.org/2000/svg">
<path d="M260 517.949C260 506.911 268.942 497.96 279.98 497.949L546.586 497.69L740 691.105V739.998H280C268.954 739.998 260 731.044 260 719.998V517.949ZM200 719.998C200 764.181 235.817 799.998 280 799.998H740V949.997H800V517.523C800 473.311 764.136 437.481 719.923 437.523L279.923 437.949C235.77 437.992 200 473.797 200 517.949V719.998ZM740 606.253L631.356 497.608L719.98 497.523C731.034 497.513 740 506.47 740 517.523V606.253Z" fill="black"/>
</svg>
