<svg width="1000" height="1000" viewBox="0 0 1000 1000" fill="none" xmlns="http://www.w3.org/2000/svg">
<path d="M740 280C740 268.954 731.046 260 720 260H280C268.954 260 260 268.954 260 280V740H483.56C488.876 740 493.973 737.884 497.726 734.118L591.133 640.393C623.512 607.903 676.523 609.236 707.229 643.312L790.394 735.604L745.82 775.77L662.655 683.477C654.979 674.958 641.727 674.624 633.632 682.746L540.225 776.473C525.214 791.534 504.824 800 483.56 800H200V280C200 235.817 235.817 200 280 200H720C764.183 200 800 235.817 800 280V434H740V280Z" fill="black"/>
</svg>
