<svg width="1000" height="1000" viewBox="0 0 1000 1000" fill="none" xmlns="http://www.w3.org/2000/svg">
<path d="M200 280.051C200 235.837 235.867 200.006 280.081 200.051L719.08 200.492C763.231 200.537 799 236.341 799 280.492V449.257C799 493.44 763.183 529.257 719 529.257H634.322L757.791 597.712C783.222 611.812 799 638.6 799 667.678V800H739V667.678C739 660.408 735.056 653.712 728.698 650.187L402.365 469.257H719C730.046 469.257 739 460.303 739 449.257V280.492C739 269.455 730.058 260.504 719.021 260.492L280.021 260.051C268.967 260.04 260 268.997 260 280.051V800H200V280.051Z" fill="black"/>
</svg>
