<svg width="1000" height="1000" viewBox="0 0 1000 1000" fill="none" xmlns="http://www.w3.org/2000/svg">
<path d="M519 659C519 648.507 510.493 640 500 640C489.507 640 481 648.507 481 659C481 669.493 489.507 678 500 678C510.493 678 519 669.493 519 659ZM579 659C579 702.63 543.63 738 500 738C456.37 738 421 702.63 421 659C421 615.37 456.37 580 500 580C543.63 580 579 615.37 579 659Z" fill="black"/>
<path d="M519 416C519 405.507 510.493 397 500 397C489.507 397 481 405.507 481 416C481 426.493 489.507 435 500 435C510.493 435 519 426.493 519 416ZM579 416C579 459.63 543.63 495 500 495C456.37 495 421 459.63 421 416C421 372.37 456.37 337 500 337C543.63 337 579 372.37 579 416Z" fill="black"/>
</svg>
