<svg width="1000" height="1000" viewBox="0 0 1000 1000" fill="none" xmlns="http://www.w3.org/2000/svg">
<path d="M800 200V358.914L529.255 539.712V632H469.255V507.631L740 326.832V260H260V342.874H200V200H800Z" fill="black"/>
<path d="M519 749C519 738.507 510.493 730 500 730C489.507 730 481 738.507 481 749C481 759.493 489.507 768 500 768C510.493 768 519 759.493 519 749ZM579 749C579 792.63 543.63 828 500 828C456.37 828 421 792.63 421 749C421 705.37 456.37 670 500 670C543.63 670 579 705.37 579 749Z" fill="black"/>
</svg>
