<svg width="1000" height="1000" viewBox="0 0 1000 1000" fill="none" xmlns="http://www.w3.org/2000/svg">
<path d="M353.967 410.062C384.186 409.02 412.694 421.174 437.652 435.647C462.73 450.19 488.527 469.748 512.65 487.393C537.584 505.632 561.494 522.438 585.538 534.534C609.444 546.561 631.564 552.918 652.802 552.068C689.767 550.59 710.293 536.811 722.085 522.669C734.737 507.495 739.194 489.589 739.516 479.12L799.487 480.966C798.809 502.997 790.515 534.292 768.167 561.094C744.959 588.927 708.235 609.899 655.2 612.02C620.188 613.421 587.683 602.778 558.573 588.133C529.601 573.557 502.106 554.019 477.227 535.82C451.537 517.029 429.116 500.056 407.553 487.552C385.87 474.978 369.316 469.568 356.035 470.026C330.813 470.896 310.112 482.741 293.624 499.147C276.847 515.842 266.1 535.73 261.682 547.833L205.32 527.257C212.402 507.859 227.605 480.197 251.303 456.616C275.289 432.748 309.589 411.593 353.967 410.062Z" fill="black"/>
</svg>
