<svg width="1000" height="1000" viewBox="0 0 1000 1000" fill="none" xmlns="http://www.w3.org/2000/svg">
<path d="M538.196 283C538.196 271.954 529.242 263 518.196 263H402.116C391.071 263 382.116 271.954 382.116 283V370.727C382.116 376.397 384.523 381.801 388.738 385.594L457.826 447.758L531.18 385.15C535.632 381.351 538.196 375.791 538.196 369.938V283ZM598.196 369.938C598.196 393.351 587.94 415.588 570.132 430.787L502.817 488.24L800.066 755.699L759.934 800.302L456.782 527.532L301.016 660.483C296.564 664.283 294 669.843 294 675.696V740H477.225C488.27 740 497.225 731.046 497.225 720V652.636H557.225V720C557.225 764.183 521.407 800 477.225 800H234V675.696C234 652.284 244.256 630.046 262.063 614.847L411.791 487.05L348.605 430.196C331.744 415.025 322.116 393.409 322.116 370.727V283C322.116 238.817 357.933 203 402.116 203H518.196C562.379 203 598.196 238.817 598.196 283V369.938Z" fill="black"/>
</svg>
