<svg width="1000" height="1000" viewBox="0 0 1000 1000" fill="none" xmlns="http://www.w3.org/2000/svg">
<path d="M736.518 260.127L319.518 786.627L272.482 749.375L689.482 222.875L736.518 260.127ZM709 673.501C709 648.924 689.077 629.001 664.5 629.001C639.923 629.001 620 648.924 620 673.501C620 698.078 639.923 718.001 664.5 718.001C689.077 718.001 709 698.078 709 673.501ZM389 348.501C389 323.924 369.077 304.001 344.5 304.001C319.923 304.001 300 323.924 300 348.501C300 373.078 319.923 393.001 344.5 393.001C369.077 393.001 389 373.078 389 348.501ZM769 673.501C769 731.215 722.214 778.001 664.5 778.001C606.786 778.001 560 731.215 560 673.501C560 615.787 606.786 569.001 664.5 569.001C722.214 569.001 769 615.787 769 673.501ZM449 348.501C449 406.215 402.214 453.001 344.5 453.001C286.786 453.001 240 406.215 240 348.501C240 290.787 286.786 244.001 344.5 244.001C402.214 244.001 449 290.787 449 348.501Z" fill="black"/>
</svg>
