<svg width="1000" height="1000" viewBox="0 0 1000 1000" fill="none" xmlns="http://www.w3.org/2000/svg">
<path d="M391.5 499.999C391.5 328.217 416.797 237.027 447.603 188.031C463.372 162.95 480.859 148.516 497.224 140.744C513.714 132.913 526.738 133 530.503 133L530.497 193C530.261 193 527.661 192.712 522.964 194.942C518.141 197.233 508.878 203.299 498.397 219.968C476.703 254.472 451.5 331.782 451.5 499.999C451.5 668.081 477.289 745.527 499.271 780.18C509.922 796.971 519.345 803.212 524.233 805.581C526.795 806.823 528.623 807.252 529.479 807.404C530.205 807.533 530.326 807.499 530.5 807.499V867.499C530.586 867.499 529.9 867.503 529.229 867.492C528.489 867.481 527.585 867.452 526.542 867.389C524.453 867.261 521.912 866.998 518.995 866.481C513.138 865.441 505.978 863.41 498.063 859.573C481.999 851.786 464.515 837.401 448.604 812.318C417.461 763.221 391.5 671.917 391.5 499.999Z" fill="black"/>
</svg>
