<svg width="1000" height="1000" viewBox="0 0 1000 1000" fill="none" xmlns="http://www.w3.org/2000/svg">
<path d="M200 711.709C200 682.071 216.385 654.862 242.581 640.999L436.886 538.175L241.372 430.37C215.85 416.297 200 389.459 200 360.314V200H260V360.314C260 367.6 263.962 374.31 270.343 377.828L500 504.46L729.657 377.828C736.038 374.31 740 367.6 740 360.314V200H800V360.314C800 389.459 784.151 416.297 758.629 430.37L514.485 564.989L514.26 565.113L514.032 565.234L270.646 694.031C264.097 697.497 260 704.3 260 711.709V800H200V711.709Z" fill="black"/>
</svg>
